<svg width="395" height="145" xmlns="http://www.w3.org/2000/svg">
 <g>
  <title>Layer 1</title>
  <g id="svg_1">
   <g id="svg_2">
    <path id="svg_3" d="m78.873001,37.067001c-3.065994,1.166992 -2.964005,13.606995 0.464005,22.067993c3.426987,8.463013 -4.177002,10.854004 1.172989,17.458008c5.350006,6.604004 25.312012,-5.871002 24.39502,-13.660004c-0.919006,-7.789001 -13.343018,-30.692993 -26.032013,-25.865997z"/>
    <path id="svg_4" d="m49.931,64.331009c-2.373001,3.106995 -5.677994,8.322998 -8.412994,7.186981c-2.735001,-1.135986 -8.229004,-10.73999 -11.584,-15.883972c-3.355011,-5.14502 2.505997,-10.938019 5.923996,-9.425018c3.416992,1.513 14.233994,8.679016 15.929993,10.160004c1.697998,1.483978 -0.625,6.348999 -1.856995,7.962006z"/>
    <path id="svg_5" d="m88.459,127.785995c3.100006,-2.959015 1.036987,-11.539001 -4.132004,-16.459015c-5.167999,-4.918976 -16.744995,-3.645996 -18.718002,1.151001s-12.664993,15.751007 -15.285995,21.590027c-2.619995,5.837982 20.622009,10.436981 38.136002,-6.282013z"/>
    <path id="svg_6" d="m38.227997,104.237991c0.524002,-5.083984 2.044998,-9.001007 -2.942001,-12.238007c-4.987,-3.235992 -11.73999,3.942017 -19.007996,6.821014c-12.709,5.031982 -17.278,15.251984 -9.322006,16.858002s29.257004,8.062988 31.272003,-11.44101z"/>
    <path id="svg_7" d="m88.228989,20.051987c-3.009995,-0.959991 -8.535004,5.033997 -6.121994,8.040009c2.414993,3.006989 6.896988,9.503998 10.973984,8.402985c4.075012,-1.098999 14.481018,-10.274994 -4.85199,-16.442993z"/>
    <path id="svg_8" d="m59.380005,31.001999c-1.189011,0.627991 -3.703995,8.492981 -6.743011,8.144989c-3.038986,-0.350983 1.461014,-10.464996 4.675018,-11.634979c3.212982,-1.170013 2.655991,3.181 2.067993,3.48999z"/>
    <path id="svg_9" d="m65.436996,44.43898c0,0 3.274002,-3.100983 0.766006,-3.487c-2.51001,-0.385986 -4.126999,0.070007 -4.305008,0.992004c-0.177002,0.921021 0.934006,4.098999 3.539001,2.494995z"/>
    <path id="svg_10" d="m103.001999,14.369003c-1.583008,-2.691986 -7.302002,-3.065002 -5.770996,-6.610001c1.531006,-3.546005 13.15799,-7.759003 15.390991,-3.099991c2.231018,4.658997 6.545013,10.406982 1.45401,13.261993c-5.091003,2.854004 -8.82901,0.269989 -11.074005,-3.552002z"/>
    <path id="svg_11" d="m59.973007,12.973007c-4.490997,2.59201 -4.862991,7.031982 -6.901993,4.921997s-0.959,-13.354996 7.615997,-12.024994c8.575989,1.331985 -0.714005,7.102997 -0.714005,7.102997z"/>
    <path id="svg_12" d="m104.736008,110.081009c1.819,-3.399994 3.774017,-10.220001 7.089996,-8.621002s4.481995,8.562012 1.062012,13.131989c-0.976013,1.302002 -13.199005,4.916992 -8.152008,-4.510986z"/>
   </g>
  </g>
  <g id="svg_13">
   <path id="svg_14" d="m212.19899,56.00499c0,10.515991 -2.652008,18.580994 -7.95401,24.200012c-5.302979,5.617981 -12.962982,8.427002 -22.980988,8.427002l-4.602997,0l0,35.876984l-18.412018,0l0,-98.964996l25.113007,0c19.225006,0 28.837006,10.153992 28.837006,30.460999zm-35.537994,16.652008l3.52002,0c4.511993,0 7.873993,-1.240997 10.085999,-3.723999c2.209991,-2.481018 3.316986,-6.541992 3.316986,-12.184998c0,-5.188019 -1.015991,-9.036011 -3.04599,-11.541016s-5.167023,-3.756989 -9.408997,-3.756989l-4.46701,0l0,31.207001l-0.001007,0z" fill="#1A171B"/>
   <path id="svg_15" d="m285.507996,25.543991l0,64.036011c0,11.777985 -2.661987,20.770996 -7.985962,26.975006c-5.32605,6.205994 -13.020996,9.307983 -23.08403,9.307983c-9.837982,0 -17.328003,-3.079987 -22.472992,-9.238983c-5.144989,-6.160004 -7.71701,-15.265015 -7.71701,-27.313019l0,-63.765991l18.277008,0l0,65.118988c0,12.591003 4.173004,18.886017 12.521988,18.886017c3.881042,0 6.881042,-1.60202 9.004028,-4.806c2.119995,-3.20401 3.180969,-7.762024 3.180969,-13.674011l0,-65.524994l18.276001,0l0,-0.001007z" fill="#1A171B"/>
   <path id="svg_16" d="m337.902985,124.508987l-18.817963,-84.276001l-0.744995,0c0.855957,6.498993 1.28595,12.454987 1.28595,17.871002l0,66.404999l-17.05896,0l0,-98.964996l28.294983,0l16.923981,77.777008l0.541046,0l16.786987,-77.777008l28.700958,0l0,98.964996l-17.463959,0l0,-67.082001c0,-5.550995 0.315002,-11.237 0.947998,-17.05899l-0.541992,0l-18.751007,84.140991l-20.103027,0z" fill="#1A171B"/>
  </g>
  <rect id="svg_17" height="8.305" width="61.273" fill="#75B354" y="11.105995" x="224.231"/>
 </g>
</svg>