<svg xmlns="http://www.w3.org/2000/svg" viewBox="-126 325 359 144"><style>.st0{fill:#393F44;} .st1{enable-background:new ;} .st2{fill:#74B354;}</style><g id="svg_2"><path id="svg_3" d="M-43.1 360.5c-3.1 1.2-3 13.6.5 22.1 3.4 8.5-4.2 10.9 1.2 17.5s25.3-5.9 24.4-13.7c-1-7.9-13.4-30.8-26.1-25.9z" class="st0"/><path id="svg_4" d="M-72.1 387.7c-2.4 3.1-5.7 8.3-8.4 7.2-2.7-1.1-8.2-10.7-11.6-15.9-3.4-5.1 2.5-10.9 5.9-9.4 3.4 1.5 14.2 8.7 15.9 10.2 1.8 1.5-.5 6.3-1.8 7.9z" class="st0"/><path id="svg_5" d="M-33.5 451.2c3.1-3 1-11.5-4.1-16.5-5.2-4.9-16.7-3.6-18.7 1.1s-12.7 15.8-15.3 21.6c-2.7 5.9 20.5 10.5 38.1-6.2z" class="st0"/><path id="svg_6" d="M-83.8 427.6c.5-5.1 2-9-2.9-12.2-5-3.2-11.7 3.9-19 6.8-12.7 5-17.3 15.3-9.3 16.9 7.9 1.6 29.2 8 31.2-11.5z" class="st0"/><path id="svg_7" d="M-33.8 343.5c-3-1-8.5 5-6.1 8 2.4 3 6.9 9.5 11 8.4 4.1-1.1 14.5-10.3-4.9-16.4z" class="st0"/><path id="svg_8" d="M-62.6 354.4c-1.2.6-3.7 8.5-6.7 8.1-3-.4 1.5-10.5 4.7-11.6 3.1-1.2 2.6 3.2 2 3.5z" class="st0"/><path id="svg_9" d="M-56.6 367.8s3.3-3.1.8-3.5c-2.5-.4-4.1.1-4.3 1-.2 1 .9 4.1 3.5 2.5z" class="st0"/><path id="svg_10" d="M-19 337.8c-1.6-2.7-7.3-3.1-5.8-6.6 1.5-3.5 13.2-7.8 15.4-3.1 2.2 4.7 6.5 10.4 1.5 13.3-5.1 2.8-8.9.2-11.1-3.6z" class="st0"/><path id="svg_11" d="M-62 336.4c-4.5 2.6-4.9 7-6.9 4.9-2-2.1-1-13.4 7.6-12 8.6 1.3-.7 7.1-.7 7.1z" class="st0"/><path id="svg_12" d="M-17.3 433.5c1.8-3.4 3.8-10.2 7.1-8.6 3.3 1.6 4.5 8.6 1.1 13.1-1 1.3-13.2 4.9-8.2-4.5z" class="st0"/></g><path d="M40.3 408H24.6v31.7c0 3.5-.7 6-2.2 7.5-1.5 1.5-3.9 2.2-7.1 2.2-4.6 0-6.9-2.5-6.9-7.5V350c0-2.8.5-4.7 1.5-5.9 1-1.1 2.7-1.7 5.1-1.7h25.2c1.7 0 3.7 0 5.9.1 2.2 0 4.5.3 7 .6 2.5.4 5 1 7.7 1.8s5.3 2.1 8 3.7c1.7 1 3.3 2.3 4.9 3.8 1.5 1.5 2.8 3.3 4 5.3 1.1 2 2 4.4 2.7 7 .6 2.6 1 5.6 1 8.9 0 4.8-.8 9.3-2.5 13.4s-4.2 7.8-7.6 10.9c-3.4 3.1-7.6 5.5-12.7 7.3-5.5 1.9-11.5 2.8-18.3 2.8zm-.2-57.5H24.6V400h15.5c7.6 0 13.4-2.1 17.6-6.4 4.2-4.3 6.3-10.9 6.3-19.9 0-3.7-.4-7.1-1.3-10-.9-2.9-2.3-5.3-4.2-7.3-1.9-2-4.4-3.5-7.4-4.5-3.1-.9-6.7-1.4-11-1.4zm55.4 34.7V423c0 10.4 4.3 15.5 12.8 15.5 2.2 0 4.4-.5 6.7-1.4 2.3-.9 4.3-2.2 6.1-3.8s3.3-3.4 4.5-5.5 1.8-4.3 1.8-6.7v-37.4c0-2.3.2-4.1.6-5.5.4-1.4.9-2.5 1.7-3.3.8-.8 1.8-1.3 3-1.6 1.2-.3 2.7-.4 4.4-.4 2.4 0 4 .6 4.8 1.7.8 1.2 1.3 2.9 1.3 5.3V442c0 2.4-.5 4-1.5 5s-2.7 1.5-5 1.5c-5.9 0-8.9-4.3-8.9-13v-1h-.3c-2.7 4.3-6.2 7.7-10.7 10.2-4.5 2.5-9.7 3.8-15.6 3.8-14.2 0-21.3-7.6-21.3-22.7v-45.9c0-2.4.4-4.2 1.3-5.3.8-1.2 2.4-1.7 4.8-1.7 3.4 0 5.8.9 7.4 2.8s2.1 5.1 2.1 9.5zm118.2 51v-37.7c0-5.7-.9-9.7-2.7-12-1.8-2.3-4.6-3.5-8.2-3.5-1.9 0-3.8.5-5.7 1.6s-3.6 2.5-5.2 4.3c-1.5 1.8-2.8 3.8-3.8 6-1 2.3-1.5 4.6-1.5 6.9v36.1c0 2.2-.2 3.9-.5 5.3s-.9 2.5-1.7 3.3c-.8.8-1.7 1.3-2.9 1.6-1.2.3-2.7.4-4.4.4-2.3 0-3.8-.6-4.7-1.7-.9-1.2-1.3-2.9-1.3-5.3v-43c0-5.7-.9-9.7-2.7-12-1.8-2.3-4.6-3.5-8.2-3.5-1.9 0-3.8.5-5.7 1.4-1.9 1-3.6 2.2-5.2 3.8s-2.8 3.4-3.8 5.5-1.4 4.3-1.4 6.6v37.6c0 2.2-.2 3.9-.5 5.3s-.9 2.5-1.6 3.3c-.7.8-1.7 1.4-2.9 1.7-1.2.3-2.7.4-4.5.4-2.4 0-4-.6-4.8-1.7-.8-1.2-1.3-2.9-1.3-5.3v-62.1c0-2.4.5-4.1 1.5-5 1-1 2.6-1.4 5-1.4 5.8 0 8.8 4.3 8.8 13v1h.3c1.2-1.9 2.5-3.7 3.8-5.4 1.4-1.7 3-3.2 4.8-4.5 1.8-1.3 3.9-2.2 6.3-3 2.4-.7 5.2-1.1 8.4-1.1 10.8 0 17 5.2 18.7 15.5h.3c1.4-2.2 2.8-4.3 4.4-6.2s3.3-3.6 5.2-4.9c1.9-1.4 4-2.5 6.3-3.2 2.3-.8 4.9-1.2 7.9-1.2 12.9 0 19.3 7.6 19.3 22.7v45.9c0 2.4-.4 4.2-1.3 5.3-.8 1.2-2.4 1.7-4.8 1.7-3.4 0-5.8-.9-7.3-2.8-1.7-2.1-2.4-5.3-2.4-9.7z" class="st0"/><path d="M94.9 359h31.7c.7 0 1.3.1 1.8.2s.8.3 1.1.6c.3.3.4.6.5 1 .1.4.1.9.1 1.5 0 .8-.2 1.4-.6 1.6-.4.3-1 .4-1.8.4H93.1c-.9 0-1.5-.1-1.9-.4-.4-.3-.6-.8-.6-1.6 0-1.2.3-2 1-2.5s1.7-.8 3.3-.8z" class="st2"/></svg>
