<?xml version="1.0" encoding="utf-8"?>
<!-- Generator: Adobe Illustrator 15.1.0, SVG Export Plug-In . SVG Version: 6.00 Build 0)  -->
<!DOCTYPE svg PUBLIC "-//W3C//DTD SVG 1.1//EN" "http://www.w3.org/Graphics/SVG/1.1/DTD/svg11.dtd">
<svg version="1.1" id="Calque_1" xmlns="http://www.w3.org/2000/svg" xmlns:xlink="http://www.w3.org/1999/xlink" x="0px" y="0px"
	 width="359px" height="144px" viewBox="0 0 359 144" enable-background="new 0 0 359 144" xml:space="preserve">
<title>Layer 1</title>
<g id="svg_1">
	<g id="svg_2">
		<path id="svg_3" fill="#393F44" d="M82.873,35.468c-3.066,1.167-2.964,13.607,0.464,22.068c3.427,8.463-4.177,10.854,1.173,17.458
			c5.35,6.604,25.312-5.871,24.395-13.66C107.986,53.545,95.562,30.641,82.873,35.468z"/>
		<path id="svg_4" fill="#393F44" d="M53.931,62.732c-2.373,3.107-5.678,8.323-8.413,7.187c-2.735-1.136-8.229-10.74-11.584-15.884
			c-3.355-5.145,2.506-10.938,5.924-9.425c3.417,1.513,14.234,8.679,15.93,10.16C57.486,56.254,55.163,61.119,53.931,62.732z"/>
		<path id="svg_5" fill="#393F44" d="M92.459,126.188c3.1-2.959,1.037-11.539-4.132-16.459c-5.168-4.92-16.745-3.646-18.718,1.15
			c-1.973,4.796-12.665,15.75-15.286,21.59C51.703,138.307,74.945,142.906,92.459,126.188z"/>
		<path id="svg_6" fill="#393F44" d="M42.228,102.639c0.524-5.084,2.045-9.002-2.942-12.238c-4.987-3.235-11.74,3.941-19.008,6.82
			C7.569,102.254,3,112.475,10.956,114.08S40.213,122.143,42.228,102.639z"/>
		<path id="svg_7" fill="#393F44" d="M92.229,18.453c-3.01-0.96-8.535,5.034-6.122,8.04c2.415,3.007,6.897,9.504,10.974,8.403
			C101.156,33.797,111.562,24.621,92.229,18.453z"/>
		<path id="svg_8" fill="#393F44" d="M63.38,29.403c-1.189,0.628-3.704,8.493-6.743,8.145c-3.039-0.351,1.461-10.465,4.675-11.635
			C64.525,24.743,63.968,29.094,63.38,29.403z"/>
		<path id="svg_9" fill="#393F44" d="M69.437,42.84c0,0,3.274-3.101,0.766-3.487c-2.51-0.386-4.127,0.07-4.305,0.992
			C65.721,41.266,66.832,44.444,69.437,42.84z"/>
		<path id="svg_10" fill="#393F44" d="M107.002,12.77c-1.583-2.692-7.302-3.065-5.771-6.61c1.531-3.546,13.158-7.759,15.391-3.1
			c2.231,4.659,6.545,10.407,1.454,13.262C112.985,19.176,109.247,16.592,107.002,12.77z"/>
		<path id="svg_11" fill="#393F44" d="M63.973,11.374c-4.491,2.592-4.863,7.032-6.902,4.922c-2.039-2.11-0.959-13.355,7.616-12.025
			C73.263,5.603,63.973,11.374,63.973,11.374z"/>
		<path id="svg_12" fill="#393F44" d="M108.736,108.482c1.819-3.4,3.774-10.222,7.09-8.621c3.316,1.598,4.482,8.561,1.062,13.131
			C115.912,114.295,103.689,117.91,108.736,108.482z"/>
	</g>
</g>
<text transform="matrix(1 0 0 1 119.2266 124.4121)" fill="#393F44" font-family="'Marmelad-Regular'" font-size="150.7645">P</text>
<text transform="matrix(1 0 0 1 193.7422 123.5459)" fill="#393F44" font-family="'Marmelad-Regular'" font-size="150.7645">u</text>
<text transform="matrix(1 0 0 1 242.2637 123.5459)" fill="#393F44" font-family="'Marmelad-Regular'" font-size="150.7645">m</text>
<text transform="matrix(4.489660e-11 -1 1 4.489660e-11 256.127 43.832)" fill="#74B354" font-family="'Marmelad-Regular'" font-size="51.9878">l</text>
</svg>
